<svg width="473" height="353" viewBox="0 0 473 353" fill="none" xmlns="http://www.w3.org/2000/svg">
    <path d="M473 309.72H0V309.957H473V309.72Z" fill="#4C4C4C"/>
    <path d="M425.605 324.942H394.274V325.178H425.605V324.942Z" fill="#4C4C4C"/>
    <path d="M313.334 327.515H305.113V327.751H313.334V327.515Z" fill="#EBEBEB"/>
    <path d="M393.328 316.163H375.174V316.399H393.328V316.163Z" fill="#4C4C4C"/>
    <path d="M90.4849 317.752H49.6272V317.988H90.4849V317.752Z" fill="#4C4C4C"/>
    <path d="M104.902 317.752H98.9138V317.988H104.902V317.752Z" fill="#4C4C4C"/>
    <path d="M212.992 321.744H124.371V321.981H212.992V321.744Z" fill="#4C4C4C"/>
    <path d="M224.202 267.529H41.5389C40.108 267.526 38.7365 266.956 37.7255 265.943C36.7145 264.931 36.1467 263.558 36.1467 262.127V5.35436C36.1592 3.9316 36.7325 2.57121 37.7421 1.56867C38.7517 0.566141 40.1161 0.00243726 41.5389 0H224.202C225.635 0 227.009 0.569102 228.022 1.58211C229.035 2.59512 229.604 3.96905 229.604 5.40166V262.127C229.604 263.56 229.035 264.934 228.022 265.947C227.009 266.96 225.635 267.529 224.202 267.529ZM41.5389 0.189201C40.1707 0.191707 38.8593 0.736996 37.8927 1.70538C36.9261 2.67376 36.3832 3.98611 36.3832 5.35436V262.127C36.3832 263.495 36.9261 264.808 37.8927 265.776C38.8593 266.744 40.1707 267.29 41.5389 267.292H224.202C225.571 267.29 226.884 266.745 227.852 265.777C228.82 264.809 229.365 263.496 229.367 262.127V5.35436C229.365 3.98524 228.82 2.67292 227.852 1.7048C226.884 0.736688 225.571 0.191701 224.202 0.189201H41.5389Z" fill="#4C4C4C"/>
    <path d="M428.831 267.529H246.159C244.727 267.526 243.354 266.956 242.342 265.944C241.329 264.931 240.76 263.559 240.757 262.127V5.35436C240.772 3.93074 241.347 2.57035 242.359 1.56808C243.37 0.565811 244.735 0.00241068 246.159 0H428.831C430.253 0.00492345 431.615 0.569728 432.622 1.57199C433.63 2.57426 434.202 3.93323 434.214 5.35436V262.127C434.214 263.556 433.648 264.928 432.639 265.94C431.63 266.952 430.261 267.524 428.831 267.529ZM246.159 0.189201C244.79 0.191701 243.477 0.736688 242.509 1.7048C241.541 2.67292 240.996 3.98524 240.994 5.35436V262.127C240.996 263.496 241.541 264.809 242.509 265.777C243.477 266.745 244.79 267.29 246.159 267.292H428.831C430.2 267.29 431.513 266.745 432.481 265.777C433.449 264.809 433.994 263.496 433.997 262.127V5.35436C433.994 3.98524 433.449 2.67292 432.481 1.7048C431.513 0.736688 430.2 0.191701 428.831 0.189201H246.159Z" fill="#4C4C4C"/>
    <path d="M63.1832 309.72H191.555L191.555 38.4171H63.1832L63.1832 309.72Z" fill="#4C4C4C"/>
    <path d="M60.3358 309.72H188.708L188.708 38.4171H60.3358L60.3358 309.72Z" fill="#4C4C4C"/>
    <path d="M183.59 303.969L183.59 44.1686L65.4633 44.1686L65.4633 303.969H183.59Z" fill="#333333"/>
    <path d="M156.383 303.969L126.452 44.1686H92.6606L122.592 303.969H156.383Z" fill="#4C4C4C"/>
    <path d="M67.6201 303.969L67.6201 44.1686H65.4632L65.4632 303.969H67.6201Z" fill="#4C4C4C"/>
    <path d="M62.4548 74.3936L186.589 74.3936V66.6742L62.4548 66.6742V74.3936Z" fill="#4C4C4C"/>
    <path d="M259.422 309.72V152.306H207.59V309.72H259.422Z" fill="#333333"/>
    <path d="M256.574 203.04V156.904H210.438V203.04H256.574Z" fill="#4C4C4C"/>
    <path d="M256.574 253.32V207.183H210.438V253.32H256.574Z" fill="#4C4C4C"/>
    <path d="M256.574 303.6V257.463H210.438V303.6H256.574Z" fill="#4C4C4C"/>
    <path d="M243.718 156.298H223.256C223.25 156.927 223.369 157.551 223.607 158.134C223.845 158.716 224.196 159.245 224.641 159.69C225.086 160.135 225.615 160.487 226.198 160.725C226.78 160.962 227.404 161.082 228.033 161.075H238.893C239.524 161.08 240.15 160.961 240.735 160.723C241.319 160.485 241.851 160.134 242.299 159.69C242.748 159.246 243.104 158.718 243.347 158.136C243.591 157.554 243.717 156.929 243.718 156.298Z" fill="#E6E6E6"/>
    <path d="M243.718 206.578H223.256C223.256 207.846 223.759 209.062 224.655 209.959C225.55 210.857 226.766 211.362 228.033 211.365H238.893C239.525 211.368 240.151 211.248 240.735 211.009C241.32 210.77 241.852 210.418 242.3 209.973C242.748 209.529 243.104 209 243.348 208.417C243.591 207.834 243.717 207.209 243.718 206.578Z" fill="#333333"/>
    <path d="M243.718 256.858H223.256C223.256 258.126 223.759 259.342 224.655 260.239C225.55 261.137 226.766 261.642 228.033 261.645H238.893C239.525 261.649 240.151 261.528 240.735 261.289C241.32 261.05 241.852 260.698 242.3 260.253C242.748 259.809 243.104 259.28 243.348 258.697C243.591 258.114 243.717 257.489 243.718 256.858Z" fill="#333333"/>
    <path d="M285.304 309.72V152.306H259.412V309.72H285.304Z" fill="#4C4C4C"/>
    <path d="M397.784 305.851H412.153V187.336H397.784V305.851Z" fill="#4C4C4C"/>
    <path d="M272.183 309.72H410.167V305.851H272.183V309.72Z" fill="#333333"/>
    <path d="M397.784 187.336H270.187V305.851H397.784V187.336Z" fill="#4C4C4C"/>
    <path d="M295.152 256.593H372.781C376.446 256.593 379.962 255.137 382.554 252.545C385.146 249.953 386.602 246.437 386.602 242.772C386.602 239.106 385.146 235.591 382.554 232.999C379.962 230.407 376.446 228.951 372.781 228.951H295.152C291.487 228.951 287.971 230.407 285.379 232.999C282.787 235.591 281.331 239.106 281.331 242.772C281.331 246.437 282.787 249.953 285.379 252.545C287.971 255.137 291.487 256.593 295.152 256.593ZM372.8 229.878C374.493 229.878 376.17 230.211 377.734 230.859C379.298 231.507 380.72 232.457 381.917 233.654C383.115 234.852 384.064 236.273 384.712 237.838C385.36 239.402 385.694 241.079 385.694 242.772C385.694 244.465 385.36 246.142 384.712 247.706C384.064 249.271 383.115 250.692 381.917 251.889C380.72 253.087 379.298 254.036 377.734 254.684C376.17 255.332 374.493 255.666 372.8 255.666H295.152C291.732 255.666 288.453 254.307 286.035 251.889C283.617 249.471 282.258 246.192 282.258 242.772C282.258 239.352 283.617 236.073 286.035 233.654C288.453 231.236 291.732 229.878 295.152 229.878H372.8Z" fill="#333333"/>
    <path d="M295.152 290.98H372.781C376.446 290.98 379.962 289.524 382.554 286.932C385.146 284.34 386.602 280.825 386.602 277.159C386.602 273.494 385.146 269.978 382.554 267.386C379.962 264.794 376.446 263.338 372.781 263.338H295.152C291.487 263.338 287.971 264.794 285.379 267.386C282.787 269.978 281.331 273.494 281.331 277.159C281.331 280.825 282.787 284.34 285.379 286.932C287.971 289.524 291.487 290.98 295.152 290.98ZM372.781 264.265C374.503 264.218 376.217 264.517 377.821 265.144C379.426 265.771 380.889 266.713 382.123 267.914C383.358 269.116 384.339 270.552 385.009 272.139C385.679 273.726 386.024 275.432 386.024 277.154C386.024 278.877 385.679 280.582 385.009 282.169C384.339 283.756 383.358 285.193 382.123 286.394C380.889 287.596 379.426 288.538 377.821 289.165C376.217 289.791 374.503 290.09 372.781 290.044H295.152C293.43 290.09 291.716 289.791 290.112 289.165C288.507 288.538 287.044 287.596 285.81 286.394C284.575 285.193 283.594 283.756 282.924 282.169C282.254 280.582 281.909 278.877 281.909 277.154C281.909 275.432 282.254 273.726 282.924 272.139C283.594 270.552 284.575 269.116 285.81 267.914C287.044 266.713 288.507 265.771 290.112 265.144C291.716 264.517 293.43 264.218 295.152 264.265H372.781Z" fill="#333333"/>
    <path d="M322.274 239.792H345.697C346.461 239.789 347.194 239.485 347.734 238.944C348.275 238.404 348.58 237.671 348.582 236.907C348.58 236.142 348.275 235.41 347.734 234.869C347.194 234.329 346.461 234.024 345.697 234.021H322.274C321.509 234.024 320.777 234.329 320.236 234.869C319.696 235.41 319.391 236.142 319.388 236.907C319.391 237.671 319.696 238.404 320.236 238.944C320.777 239.485 321.509 239.789 322.274 239.792Z" fill="#333333"/>
    <path d="M295.152 222.206H372.781C376.446 222.206 379.962 220.75 382.554 218.158C385.146 215.566 386.602 212.05 386.602 208.385C386.602 204.719 385.146 201.204 382.554 198.612C379.962 196.02 376.446 194.564 372.781 194.564H295.152C291.487 194.564 287.971 196.02 285.379 198.612C282.787 201.204 281.331 204.719 281.331 208.385C281.331 212.05 282.787 215.566 285.379 218.158C287.971 220.75 291.487 222.206 295.152 222.206ZM372.781 195.491C376.201 195.491 379.48 196.849 381.898 199.267C384.316 201.686 385.675 204.965 385.675 208.385C385.675 211.805 384.316 215.084 381.898 217.502C379.48 219.92 376.201 221.279 372.781 221.279H295.152C291.732 221.279 288.453 219.92 286.035 217.502C283.617 215.084 282.258 211.805 282.258 208.385C282.258 204.965 283.617 201.686 286.035 199.267C288.453 196.849 291.732 195.491 295.152 195.491H372.781Z" fill="#333333"/>
    <path d="M322.274 205.405H345.697C346.461 205.403 347.194 205.098 347.734 204.557C348.275 204.017 348.58 203.284 348.582 202.52C348.57 201.763 348.26 201.041 347.72 200.51C347.181 199.979 346.454 199.682 345.697 199.682H322.274C321.517 199.682 320.79 199.979 320.25 200.51C319.71 201.041 319.401 201.763 319.388 202.52C319.391 203.284 319.696 204.017 320.236 204.557C320.777 205.098 321.509 205.403 322.274 205.405Z" fill="#333333"/>
    <path d="M322.274 274.17H345.697C346.454 274.17 347.181 273.872 347.72 273.341C348.26 272.811 348.57 272.089 348.582 271.332C348.567 270.576 348.257 269.855 347.718 269.325C347.178 268.794 346.453 268.496 345.697 268.494H322.274C321.517 268.496 320.792 268.794 320.253 269.325C319.713 269.855 319.403 270.576 319.388 271.332C319.401 272.089 319.71 272.811 320.25 273.341C320.79 273.872 321.517 274.17 322.274 274.17Z" fill="#333333"/>
    <path d="M267.557 187.336L397.774 187.336V181.31L267.557 181.31V187.336Z" fill="#4C4C4C"/>
    <path d="M414.972 181.32H397.783V187.346H414.972V181.32Z" fill="#333333"/>
    <path d="M304.612 86.455C307.516 87.9118 315.387 86.3415 312.767 91.6675C311.257 94.4574 309.453 97.0771 307.384 99.4814C304.451 103.105 305.009 107.049 308.472 108.45C309.214 108.704 309.87 109.163 310.364 109.774C311.962 112.063 308.197 115.128 306.343 117.418C304.489 119.707 303.751 121.958 305.113 123.661C306.627 125.553 309.768 124.844 312.265 125.411C318.263 126.783 312.095 135.06 312.729 139.308C313.164 142.222 315.567 143.035 318.736 143.442C321.356 143.783 324.847 144.019 324.989 146.696C325.121 149.023 322.094 151.653 321.299 154.094C320.922 155.144 320.779 156.264 320.881 157.375C320.982 158.487 321.325 159.562 321.886 160.527C322.418 161.34 323.114 162.034 323.928 162.565C324.742 163.095 325.657 163.452 326.616 163.611C329.586 164.235 334.08 163.611 334.298 166.941C334.392 168.435 333.352 169.779 334.07 171.141C334.469 171.716 334.987 172.197 335.59 172.551C336.193 172.906 336.865 173.125 337.561 173.194C340.406 173.628 343.304 173.577 346.132 173.042C349.623 172.399 354.778 169.325 352.886 166.364C352.56 165.939 352.153 165.583 351.689 165.317C351.225 165.051 350.712 164.879 350.181 164.812C349.348 164.642 346.908 164.907 346.596 164.339C346.283 163.772 347.125 161.586 347.154 160.801C347.24 158.621 346.896 156.444 346.141 154.397C345.178 151.72 343.641 149.285 341.638 147.264C340.806 146.422 339.491 145.807 339.321 144.587C339.15 143.366 339.917 142.023 340.768 140.803C342.102 138.911 344.174 137.132 344.921 135.127C346.094 131.967 343.247 130.964 340.607 130.245C338.223 129.593 335.083 128.76 335.877 125.865C336.464 123.775 339.103 122.081 339.888 120.019C340.957 117.285 338.365 117.181 336.521 116.235C334.108 114.967 333.503 112.697 334.373 109.831C335.821 105.101 344.495 98.4124 340.049 95.3379C338.923 94.5528 337.873 94.2973 337.211 93.1148C336.549 91.9323 336.379 90.2768 335.433 89.1606C333.938 87.3537 330.845 87.051 329.236 85.3766C325.916 81.9331 333.077 75.8314 326.54 74.3746C325.16 74.1969 323.853 73.6512 322.756 72.7948C322.16 72.2366 321.668 69.5405 320.997 69.3513C317.998 68.5188 312.596 74.3367 310.893 76.1247C308.822 78.2816 301.169 84.7144 304.612 86.455Z" fill="#333333"/>
    <path d="M356.065 166.695C354.287 163.393 346.501 160.073 351.666 156.289C354.452 154.393 357.449 152.828 360.596 151.625C365.118 149.733 366.726 145.381 364.437 141.777C363.911 141.019 363.585 140.141 363.491 139.223C363.302 135.893 368.268 135.098 371.125 133.897C373.982 132.695 375.855 130.86 375.543 128.268C375.222 125.43 372.081 124.162 370.179 122.034C365.62 116.907 375.496 112.262 377.208 107.513C378.381 104.259 376.735 101.96 374.124 99.5475C371.996 97.5704 369.035 95.1676 370.34 92.3296C371.475 89.87 375.553 89.0564 377.558 87.0509C378.483 86.1442 379.219 85.0625 379.723 83.8688C380.226 82.6752 380.487 81.3933 380.491 80.0978C380.446 77.8279 379.551 75.6575 377.984 74.015C375.695 71.527 371.362 69.3985 372.979 65.8321C373.698 64.2428 375.335 63.5333 375.43 61.6697C375.401 60.8627 375.211 60.0697 374.871 59.337C374.532 58.6044 374.05 57.9469 373.452 57.4032C371.237 55.2321 368.648 53.479 365.809 52.2286C362.384 50.715 356.188 50.6677 356.273 54.8774C356.38 56.1169 356.931 57.276 357.825 58.1411C358.477 58.8412 360.767 60.0804 360.738 60.8561C360.71 61.6319 358.846 63.3441 358.345 64.1293C357.091 66.3605 356.236 68.7936 355.819 71.3189C355.234 74.6666 355.288 78.0949 355.98 81.4222C356.254 82.7939 357.096 84.2602 356.585 85.6035C356.074 86.9468 354.693 87.855 353.303 88.5456C351.117 89.6429 348.327 90.2011 346.596 91.7903C343.862 94.2972 345.839 97.0974 347.788 99.4719C349.547 101.619 351.865 104.419 349.604 106.889C347.967 108.667 344.722 108.78 342.982 110.379C340.579 112.527 342.802 114.239 343.928 116.396C345.366 119.234 344.694 121.883 342.386 124.276C338.602 128.23 327.344 129.687 329.624 135.628C330.201 137.132 330.977 138.05 330.949 139.677C330.92 141.304 330.173 143.082 330.4 144.833C330.75 147.614 333.314 149.846 333.843 152.561C334.922 158.152 325.329 159.959 330.324 165.503C331.491 166.596 332.357 167.971 332.841 169.495C333.077 170.441 332.056 173.496 332.547 174.111C334.752 176.826 342.632 174.234 345.091 173.449C347.996 172.456 358.194 170.621 356.065 166.695Z" fill="#4C4C4C"/>
    <path d="M376.007 159.25C376.007 159.25 375.061 181.32 338.942 181.32C302.824 181.32 301.878 159.25 301.878 159.25H376.007Z" fill="#333333"/>
    <path d="M236.5 352.442C337.8 352.442 419.92 347.647 419.92 341.733C419.92 335.819 337.8 331.024 236.5 331.024C135.2 331.024 53.0801 335.819 53.0801 341.733C53.0801 347.647 135.2 352.442 236.5 352.442Z" fill="#171717"/>
    <g opacity="0.2">
        <path d="M341.251 333.815L281 222.452L220.749 333.815H341.251Z" fill="#397DF6"/>
        <path d="M341.251 145.419L281 256.773L220.749 145.419H341.251Z" fill="#397DF6"/>
    </g>
    <path d="M292.039 211.166L283.223 227.456C283.006 227.857 282.686 228.193 282.294 228.426C281.903 228.66 281.455 228.783 281 228.783C280.544 228.783 280.097 228.66 279.705 228.426C279.314 228.193 278.993 227.857 278.777 227.456L269.96 211.166C269.165 209.694 268.766 208.04 268.803 206.367C268.839 204.694 269.31 203.06 270.168 201.623C271.027 200.187 272.243 198.998 273.699 198.174C275.155 197.349 276.801 196.917 278.474 196.919H283.573C285.242 196.925 286.881 197.363 288.331 198.191C289.78 199.019 290.99 200.209 291.843 201.644C292.696 203.079 293.162 204.71 293.197 206.379C293.231 208.048 292.832 209.697 292.039 211.166Z" fill="#397DF6"/>
    <path d="M281.955 305.7L309.342 316.957C309.876 317.183 310.317 317.585 310.59 318.097C310.862 318.609 310.951 319.199 310.84 319.768C310.729 320.337 310.425 320.851 309.98 321.223C309.535 321.595 308.976 321.802 308.396 321.81H253.651C253.071 321.802 252.512 321.595 252.067 321.223C251.622 320.851 251.318 320.337 251.207 319.768C251.096 319.199 251.184 318.609 251.457 318.097C251.73 317.585 252.171 317.183 252.705 316.957L280.016 305.7C280.323 305.571 280.653 305.505 280.986 305.505C281.319 305.505 281.648 305.571 281.955 305.7Z" fill="#397DF6"/>
    <path d="M281 284.282C282.938 284.282 284.51 282.711 284.51 280.773C284.51 278.834 282.938 277.263 281 277.263C279.062 277.263 277.49 278.834 277.49 280.773C277.49 282.711 279.062 284.282 281 284.282Z" fill="#397DF6"/>
    <path d="M281 245.922C281.998 245.922 282.807 245.113 282.807 244.115C282.807 243.117 281.998 242.308 281 242.308C280.002 242.308 279.193 243.117 279.193 244.115C279.193 245.113 280.002 245.922 281 245.922Z" fill="#397DF6"/>
    <path d="M281 263.641C282.134 263.641 283.053 262.722 283.053 261.588C283.053 260.454 282.134 259.535 281 259.535C279.866 259.535 278.947 260.454 278.947 261.588C278.947 262.722 279.866 263.641 281 263.641Z" fill="#397DF6"/>
    <path d="M340.948 328.319H221.052C219.596 328.324 218.202 328.905 217.174 329.935C216.146 330.965 215.567 332.36 215.565 333.815C215.57 335.269 216.15 336.661 217.177 337.689C218.205 338.717 219.598 339.297 221.052 339.302H340.948C342.401 339.297 343.794 338.717 344.822 337.689C345.85 336.661 346.43 335.269 346.435 333.815C346.432 332.36 345.854 330.965 344.825 329.935C343.797 328.905 342.403 328.324 340.948 328.319Z" fill="#397DF6"/>
    <path d="M340.948 139.932H221.052C219.598 139.937 218.205 140.517 217.177 141.545C216.15 142.573 215.57 143.966 215.565 145.419C215.57 146.873 216.15 148.266 217.177 149.293C218.205 150.321 219.598 150.901 221.052 150.906H340.948C342.401 150.901 343.794 150.321 344.822 149.293C345.85 148.266 346.43 146.873 346.435 145.419C346.43 143.966 345.85 142.573 344.822 141.545C343.794 140.517 342.401 139.937 340.948 139.932Z" fill="#397DF6"/>
    <path d="M184.12 331.743L177.451 329.577L181.594 313.845L188.263 316.011L184.12 331.743Z" fill="#FF8B7B"/>
    <path d="M177.347 328.688L184.839 331.119C184.965 331.156 185.072 331.241 185.138 331.356C185.203 331.471 185.221 331.606 185.189 331.734L183.628 337.788C183.528 338.1 183.309 338.36 183.018 338.51C182.728 338.661 182.389 338.69 182.077 338.592C179.485 337.703 178.293 337.145 174.991 336.076C172.957 335.414 166.279 333.692 163.478 332.784C160.678 331.876 161.653 329.132 162.92 329.265C168.596 329.861 173.705 329.596 176.07 328.726C176.479 328.572 176.929 328.559 177.347 328.688Z" fill="#263238"/>
    <path opacity="0.2" d="M188.264 316.021L181.594 313.845L179.456 321.962L186.135 324.128L188.264 316.021Z" fill="black"/>
    <path d="M206.493 156.771C206.493 156.771 194.526 212.159 191.716 232.073C188.642 253.878 177.091 319.36 177.091 319.36L189.474 322.785C189.474 322.785 206.635 259.28 211.649 238.08C217.088 215.064 231.515 156.724 231.515 156.724L206.493 156.771Z" fill="#397DF6"/>
    <path opacity="0.3" d="M221.288 174.934C216.558 185.662 214.222 208.99 216.057 219.727C219.406 205.963 223.436 189.597 226.548 177.006C225.498 173.355 223.757 169.334 221.288 174.934Z" fill="black"/>
    <path d="M189.787 323.031L176.524 319.379L176.789 313.977L191.716 319.133L189.787 323.031Z" fill="#263238"/>
    <path d="M174.603 329.085C175.22 329.265 175.854 329.379 176.495 329.426C176.527 329.427 176.559 329.42 176.586 329.405C176.614 329.39 176.637 329.368 176.653 329.34C176.669 329.313 176.677 329.281 176.675 329.249C176.674 329.218 176.664 329.187 176.647 329.161C176.476 328.943 175.01 327.042 174.092 327.098C173.987 327.104 173.884 327.136 173.795 327.192C173.705 327.249 173.632 327.327 173.582 327.42C173.487 327.557 173.43 327.717 173.417 327.883C173.403 328.049 173.434 328.216 173.506 328.366C173.774 328.729 174.163 328.984 174.603 329.085ZM176.107 329.085C174.84 328.934 173.969 328.612 173.761 328.205C173.718 328.109 173.701 328.003 173.713 327.898C173.724 327.793 173.764 327.693 173.828 327.609C173.852 327.564 173.887 327.525 173.93 327.497C173.973 327.469 174.022 327.452 174.074 327.448C174.565 327.392 175.493 328.319 176.107 329.057V329.085Z" fill="#263238"/>
    <path d="M176.429 329.416H176.505C176.532 329.41 176.558 329.398 176.579 329.38C176.601 329.361 176.618 329.338 176.628 329.312C176.628 329.236 177.432 327.363 176.968 326.474C176.911 326.362 176.828 326.265 176.726 326.191C176.624 326.118 176.506 326.069 176.382 326.048C176.248 326.008 176.104 326.014 175.973 326.066C175.843 326.117 175.733 326.211 175.663 326.332C175.275 327.013 175.814 328.726 176.353 329.341L176.429 329.416ZM176.429 326.417C176.492 326.436 176.551 326.467 176.602 326.509C176.652 326.552 176.693 326.604 176.722 326.663C176.881 327.425 176.791 328.217 176.467 328.924C176.009 328.216 175.837 327.361 175.985 326.531C175.985 326.446 176.117 326.351 176.353 326.398L176.429 326.417Z" fill="#263238"/>
    <path d="M219.226 104.183C218.867 105.034 218.564 105.678 218.233 106.397C217.902 107.116 217.542 107.778 217.192 108.459C216.492 109.831 215.754 111.165 214.988 112.498C213.44 115.177 211.734 117.761 209.88 120.237C207.981 122.797 205.877 125.198 203.589 127.417C201.15 129.817 198.386 131.861 195.377 133.49L195.141 133.613C194.758 133.811 194.351 133.957 193.93 134.048C191.775 134.496 189.544 134.409 187.431 133.793C185.676 133.268 184.006 132.49 182.474 131.485C179.904 129.757 177.597 127.666 175.625 125.279C173.793 123.102 172.126 120.79 170.64 118.364C169.171 115.979 167.866 113.498 166.733 110.937C166.441 110.26 166.403 109.5 166.626 108.797C166.849 108.095 167.318 107.496 167.946 107.11C168.575 106.725 169.322 106.58 170.05 106.701C170.777 106.821 171.437 107.201 171.907 107.768L172.002 107.882C173.563 109.774 175.256 111.789 176.959 113.624C178.618 115.451 180.381 117.182 182.237 118.808C183.879 120.296 185.704 121.568 187.668 122.592C188.402 122.97 189.19 123.231 190.004 123.368C190.46 123.453 190.931 123.413 191.366 123.254L189.919 123.813C191.874 122.494 193.657 120.937 195.226 119.177C196.934 117.259 198.514 115.23 199.956 113.104C201.451 110.928 202.87 108.648 204.204 106.302C204.885 105.139 205.537 103.956 206.152 102.755L207.098 100.967C207.392 100.39 207.713 99.7274 207.94 99.2638L207.997 99.1314C208.687 97.6761 209.92 96.5494 211.431 95.9935C212.943 95.4376 214.612 95.4968 216.08 96.1584C217.548 96.8201 218.698 98.0313 219.283 99.5318C219.868 101.032 219.841 102.702 219.207 104.183H219.226Z" fill="#263238"/>
    <path opacity="0.3" d="M203.759 117.03C206.729 109.14 213.039 109.008 215.773 111.098C215.575 111.467 215.366 111.836 215.158 112.205C213.674 114.788 212.048 117.286 210.286 119.688C208.479 122.159 206.49 124.493 204.336 126.669C203.655 127.341 202.955 128.003 202.226 128.647C201.976 124.711 202.496 120.765 203.759 117.03Z" fill="black"/>
    <path d="M166.496 111.429L160.347 111.656L161.88 105.082C163.997 105.187 166.098 105.504 168.152 106.028C168.526 106.141 168.868 106.341 169.15 106.611C169.432 106.881 169.647 107.213 169.777 107.582C169.907 107.95 169.948 108.344 169.898 108.732C169.847 109.119 169.706 109.489 169.486 109.812C169.153 110.301 168.708 110.703 168.188 110.984C167.668 111.266 167.087 111.418 166.496 111.429Z" fill="#FF8B7B"/>
    <path d="M169.939 105.876C169.336 105.398 168.645 105.041 167.906 104.826C167.395 107.513 164.122 112.044 164.122 112.044H166.685C167.015 112.045 167.341 111.974 167.64 111.835C167.939 111.696 168.204 111.493 168.416 111.24L170.214 109.083C170.411 108.857 170.56 108.593 170.653 108.307C170.746 108.022 170.781 107.721 170.755 107.422C170.73 107.123 170.644 106.832 170.504 106.566C170.364 106.301 170.172 106.066 169.939 105.876Z" fill="#397DF6"/>
    <path d="M155.636 108.629L157.358 103.994L161.861 105.091L160.328 111.656L155.636 108.629Z" fill="#FF8B7B"/>
    <path d="M232.953 334.809H225.943L225.697 318.566H232.707L232.953 334.809Z" fill="#FF8B7B"/>
    <path d="M225.574 333.995H233.454C233.52 333.992 233.585 334.003 233.647 334.025C233.709 334.048 233.766 334.083 233.814 334.128C233.862 334.173 233.901 334.227 233.929 334.287C233.956 334.347 233.972 334.411 233.974 334.477L234.353 340.711C234.353 341.039 234.224 341.354 233.994 341.588C233.763 341.821 233.451 341.955 233.123 341.96C230.379 341.913 229.074 341.752 225.555 341.752C223.426 341.752 216.303 341.969 213.361 341.969C210.419 341.969 210.523 339.056 211.743 338.791C217.344 337.618 222.338 335.953 224.316 334.43C224.671 334.142 225.116 333.988 225.574 333.995Z" fill="#263238"/>
    <path opacity="0.2" d="M232.716 318.575H225.697L225.829 326.947H232.839L232.716 318.575Z" fill="black"/>
    <path d="M220.172 156.771C220.172 156.771 217.495 217.703 218.63 237.786C219.879 259.771 222.49 324.923 222.49 324.923H235.336C235.336 324.923 238.572 261.54 239.347 239.783C240.189 216.132 244.002 156.771 244.002 156.771H220.172Z" fill="#397DF6"/>
    <path d="M235.857 324.923H221.979L220.919 319.758L236.235 320.524L235.857 324.923Z" fill="#263238"/>
    <path d="M223.086 335.215C223.723 335.199 224.357 335.117 224.978 334.969C225.008 334.959 225.035 334.942 225.056 334.919C225.078 334.895 225.093 334.867 225.101 334.837C225.104 334.806 225.1 334.776 225.088 334.748C225.077 334.72 225.058 334.695 225.035 334.676C224.807 334.515 222.821 333.162 221.96 333.503C221.864 333.541 221.78 333.603 221.714 333.682C221.648 333.761 221.602 333.856 221.582 333.957C221.538 334.111 221.535 334.273 221.571 334.428C221.608 334.584 221.683 334.728 221.79 334.846C222.162 335.124 222.623 335.255 223.086 335.215ZM224.505 334.733C223.247 334.979 222.329 334.941 221.998 334.619C221.93 334.539 221.884 334.444 221.864 334.341C221.844 334.238 221.851 334.132 221.884 334.033C221.891 333.982 221.911 333.934 221.943 333.894C221.975 333.854 222.017 333.824 222.064 333.806C222.528 333.626 223.691 334.212 224.505 334.733Z" fill="#263238"/>
    <path d="M224.921 334.969C224.945 334.977 224.972 334.977 224.997 334.969C225.02 334.955 225.041 334.936 225.055 334.913C225.07 334.89 225.079 334.864 225.082 334.837C225.082 334.752 225.243 332.737 224.533 332.055C224.443 331.967 224.334 331.901 224.214 331.861C224.094 331.822 223.967 331.811 223.842 331.828C223.704 331.834 223.571 331.885 223.465 331.974C223.359 332.063 223.285 332.185 223.256 332.32C223.086 333.087 224.136 334.553 224.836 334.969C224.863 334.978 224.893 334.978 224.921 334.969ZM223.975 332.131C224.04 332.129 224.104 332.141 224.165 332.166C224.225 332.19 224.279 332.227 224.325 332.273C224.716 332.948 224.878 333.731 224.788 334.506C224.183 333.985 223.483 332.869 223.587 332.368C223.587 332.273 223.663 332.159 223.899 332.131H223.975Z" fill="#263238"/>
    <path d="M247.512 100.219C247.617 99.6278 247.601 99.0213 247.466 98.436C247.331 97.8507 247.08 97.2987 246.726 96.8129C246.373 96.3271 245.925 95.9176 245.41 95.6089C244.895 95.3002 244.323 95.0986 243.728 95.0162H243.652C241.391 94.6851 238.553 94.3446 235.772 94.2121C230.463 93.9092 225.141 93.9092 219.832 94.2121C217.381 94.4392 214.988 94.8459 213.077 95.2149H213.002C211.807 95.4562 210.701 96.0189 209.802 96.8424C208.904 97.6659 208.247 98.719 207.903 99.8881C205.613 107.598 202.879 123.339 206.455 156.762H243.964C244.229 153.413 243.482 142.515 244.03 128.637C244.579 119.099 245.741 109.607 247.512 100.219Z" fill="#263238"/>
    <path opacity="0.3" d="M247.152 102.281C246.376 106.766 245.421 112.867 244.759 119.309C244.759 119.309 241.334 112.593 240.71 106.851C240.085 101.108 245.014 100.673 247.152 102.281Z" fill="black"/>
    <g opacity="0.2">
        <path d="M221.998 103.171C221.92 103.167 221.845 103.138 221.785 103.089C221.725 103.039 221.683 102.971 221.665 102.895C221.647 102.82 221.654 102.74 221.685 102.669C221.716 102.597 221.769 102.538 221.837 102.499L233.53 96.4352C233.613 96.3948 233.708 96.3879 233.796 96.4161C233.884 96.4443 233.958 96.5054 234.003 96.5866C234.046 96.6708 234.054 96.7686 234.026 96.8589C233.998 96.9493 233.935 97.0248 233.851 97.0691L222.159 103.114C222.109 103.143 222.055 103.162 221.998 103.171Z" fill="white"/>
        <path d="M227.352 103.719C227.306 103.721 227.26 103.713 227.217 103.695C227.175 103.677 227.137 103.65 227.106 103.615L220.692 97.2488C220.629 97.1806 220.594 97.0911 220.594 96.9982C220.594 96.9052 220.629 96.8157 220.692 96.7475C220.759 96.6822 220.849 96.6456 220.943 96.6456C221.037 96.6456 221.127 96.6822 221.194 96.7475L227.598 103.123C227.663 103.191 227.7 103.281 227.7 103.374C227.7 103.468 227.663 103.558 227.598 103.625C227.565 103.656 227.527 103.681 227.485 103.697C227.442 103.713 227.397 103.721 227.352 103.719Z" fill="white"/>
        <path d="M235.8 94.2026C230.494 93.8997 225.175 93.8997 219.869 94.2026H219.604C219.476 94.6894 219.445 95.197 219.515 95.6957C219.585 96.1944 219.754 96.6742 220.011 97.1068C220.901 98.5258 222.764 99.3205 225.564 99.4718H226.614C234.182 99.4718 237.105 94.8743 237.228 94.6756L237.493 94.2499L235.8 94.2026Z" fill="white"/>
    </g>
    <path d="M220.626 94.146C225.262 93.0486 226.075 90.1822 225.763 87.0321C225.69 86.2431 225.566 85.4595 225.394 84.686L231.203 79.8614L235.469 76.3233C234.287 81.4601 232.953 90.8161 236.415 94.2406C236.415 94.2406 233.577 98.9706 225.602 98.5543C218.914 98.1854 220.626 94.146 220.626 94.146Z" fill="#FF8B7B"/>
    <path opacity="0.2" d="M225.394 84.686C225.566 85.4595 225.689 86.2431 225.763 87.0321C227.929 86.5969 230.824 84.2887 231.127 82.0751C231.233 81.3422 231.259 80.5998 231.202 79.8614L225.394 84.686Z" fill="black"/>
    <path d="M222.31 60.0709C219.16 61.9629 219.661 66.6929 218.81 70.0796C220.816 70.2782 223.975 66.7118 223.975 66.7118L225.867 61.2912L222.31 60.0709Z" fill="#263238"/>
    <path d="M239.064 69.5877C237.049 76.2665 236.226 80.268 231.95 83.0587C230.575 83.9783 228.974 84.5044 227.322 84.5801C225.669 84.6558 224.027 84.2782 222.574 83.4882C221.121 82.6982 219.911 81.5258 219.076 80.0978C218.24 78.6699 217.812 77.0408 217.835 75.3867C217.835 69.0201 221.109 59.1628 228.412 57.8005C229.986 57.4641 231.621 57.5477 233.152 58.0429C234.684 58.5381 236.058 59.4274 237.138 60.6217C238.217 61.8159 238.963 63.2731 239.301 64.8468C239.639 66.4206 239.557 68.0556 239.064 69.5877Z" fill="#FF8B7B"/>
    <path d="M232.773 75.2543C237.503 69.7675 231.59 67.062 236.425 63.2496C230.985 63.505 222.026 63.1171 220.428 59.3899C218.829 55.6627 223.748 50.611 227.844 50.138C232.574 49.5893 231.553 55.4451 231.553 55.4451C231.553 55.4451 249.65 54.3193 243.907 62.0671C248.259 61.8022 247.058 68.8405 239.49 74.7813C237.588 75.4152 232.773 75.2543 232.773 75.2543Z" fill="#263238"/>
    <path d="M242.819 62.1617C242.819 62.1617 246.547 61.0549 246.424 58.1033C247.767 59.0304 247.909 61.8495 242.819 62.1617Z" fill="#263238"/>
    <path d="M240.171 76.5599C239.082 77.9047 237.561 78.8307 235.866 79.1803C233.719 79.5681 233.217 77.5815 234.286 75.6422C235.232 73.9016 237.531 71.6028 239.461 72.0853C241.391 72.5677 241.542 74.8665 240.171 76.5599Z" fill="#FF8B7B"/>
    <path d="M228.289 69.4176C228.156 69.9663 227.759 70.3636 227.39 70.2785C227.021 70.1933 226.841 69.7014 226.974 69.1527C227.106 68.6041 227.504 68.2067 227.863 68.2824C228.223 68.3581 228.421 68.8595 228.289 69.4176Z" fill="#263238"/>
    <path d="M222.017 68.1593C221.884 68.708 221.487 69.1053 221.128 69.0296C220.768 68.954 220.569 68.4526 220.702 67.9039C220.834 67.3552 221.232 66.9579 221.591 67.0336C221.951 67.1093 222.149 67.6106 222.017 68.1593Z" fill="#263238"/>
    <path d="M223.947 68.8309C222.879 70.3883 221.606 71.7947 220.163 73.0122C220.484 73.3589 220.878 73.6309 221.316 73.8091C221.754 73.9872 222.226 74.0672 222.698 74.0434L223.947 68.8309Z" fill="#FF5652"/>
    <path d="M224.628 75.9732C225.283 76.0347 225.943 75.9624 226.569 75.7607C227.196 75.5591 227.774 75.2323 228.27 74.8001C228.286 74.7859 228.299 74.7684 228.308 74.7489C228.317 74.7293 228.321 74.7081 228.321 74.6866C228.321 74.6651 228.317 74.6439 228.308 74.6243C228.299 74.6048 228.286 74.5873 228.27 74.5731C228.238 74.5424 228.196 74.5253 228.152 74.5253C228.108 74.5253 228.065 74.5424 228.033 74.5731C227.49 75.0354 226.846 75.3656 226.154 75.5379C225.461 75.7102 224.738 75.72 224.041 75.5664C224.02 75.5623 223.998 75.5625 223.977 75.567C223.956 75.5715 223.936 75.5802 223.919 75.5926C223.901 75.6049 223.886 75.6207 223.875 75.6389C223.863 75.6572 223.856 75.6776 223.852 75.6988C223.844 75.7427 223.853 75.7881 223.878 75.8252C223.902 75.8624 223.941 75.8883 223.985 75.8975L224.628 75.9732Z" fill="#263238"/>
    <path d="M230.711 67.8849C230.763 67.9022 230.819 67.9022 230.872 67.8849C230.911 67.8676 230.947 67.8424 230.977 67.8109C231.007 67.7794 231.03 67.7422 231.045 67.7016C231.06 67.6609 231.066 67.6177 231.064 67.5744C231.062 67.5311 231.051 67.4887 231.032 67.4497C230.829 66.966 230.51 66.5401 230.102 66.21C229.694 65.8799 229.211 65.6558 228.696 65.5577C228.608 65.5468 228.52 65.5703 228.449 65.6232C228.379 65.6762 228.331 65.7544 228.317 65.8415C228.312 65.8851 228.316 65.9292 228.327 65.9714C228.339 66.0136 228.36 66.053 228.387 66.0873C228.414 66.1216 228.448 66.1502 228.486 66.1713C228.525 66.1925 228.567 66.2058 228.611 66.2105C229.011 66.2951 229.386 66.4751 229.702 66.7354C230.018 66.9956 230.267 67.3283 230.427 67.7052C230.455 67.7571 230.495 67.801 230.545 67.8325C230.595 67.864 230.652 67.882 230.711 67.8849Z" fill="#263238"/>
    <path d="M220.465 64.3943C220.516 64.4128 220.571 64.4173 220.625 64.4073C220.678 64.3973 220.727 64.3732 220.768 64.3375C221.095 64.0656 221.48 63.8736 221.894 63.7767C222.308 63.6798 222.739 63.6807 223.152 63.7794C223.194 63.793 223.238 63.7984 223.281 63.7951C223.325 63.7918 223.368 63.7799 223.407 63.7601C223.446 63.7404 223.481 63.7131 223.509 63.6799C223.538 63.6467 223.559 63.6081 223.573 63.5665C223.587 63.5249 223.592 63.481 223.589 63.4373C223.585 63.3936 223.574 63.3511 223.554 63.312C223.534 63.2729 223.507 63.2381 223.474 63.2095C223.44 63.181 223.402 63.1592 223.36 63.1456C222.842 63.0176 222.302 63.0117 221.782 63.1283C221.261 63.2448 220.775 63.4807 220.361 63.8172C220.293 63.8713 220.248 63.9504 220.237 64.0373C220.227 64.1241 220.251 64.2117 220.305 64.2808C220.343 64.3366 220.4 64.3768 220.465 64.3943Z" fill="#263238"/>
    <path d="M247.852 97.5232L248.637 98.5922L249.347 99.595C249.82 100.267 250.245 100.938 250.69 101.61C251.551 102.963 252.364 104.334 253.15 105.716C254.723 108.477 256.151 111.319 257.426 114.23C258.088 115.668 258.655 117.162 259.261 118.628C259.866 120.095 260.377 121.618 260.841 123.15C261.837 126.201 262.659 129.305 263.3 132.45L263.376 132.809C263.515 133.444 263.527 134.1 263.412 134.74C263.296 135.379 263.056 135.99 262.704 136.536C261.485 138.407 260.04 140.12 258.4 141.635C256.713 143.181 254.799 144.457 252.724 145.419C250.675 146.374 248.482 146.981 246.234 147.217C245.134 147.33 244.027 147.349 242.923 147.273C242.375 147.273 241.826 147.169 241.277 147.084L240.445 146.923L239.499 146.687C239.388 146.66 239.291 146.59 239.231 146.493C239.171 146.395 239.152 146.278 239.177 146.167L240.483 140.68C240.483 140.632 240.729 140.623 240.88 140.585L241.4 140.481C241.76 140.405 242.11 140.32 242.469 140.226C243.17 140.036 243.856 139.796 244.522 139.507C245.811 138.977 247.019 138.267 248.107 137.397C250.238 135.644 251.94 133.428 253.083 130.917L252.487 135.004C251.674 132.327 250.813 129.678 249.772 127.057C248.732 124.437 247.597 121.864 246.357 119.329C245.118 116.793 243.794 114.286 242.365 111.846C241.665 110.625 240.927 109.424 240.189 108.232L239.064 106.472L238.506 105.621L237.985 104.864L237.796 104.58C236.86 103.247 236.492 101.596 236.774 99.9916C237.055 98.3869 237.962 96.9597 239.295 96.0238C240.629 95.088 242.28 94.7202 243.884 95.0014C245.489 95.2826 246.916 96.1897 247.852 97.5232Z" fill="#263238"/>
    <path d="M235.346 146.138L233.312 149.468L242.138 149.118C242.138 149.118 244.456 143.177 241.296 142.241L240.066 142.572C238.099 143.123 236.413 144.396 235.346 146.138Z" fill="#FF8B7B"/>
    <path d="M238.979 141.474C238.343 141.904 237.797 142.453 237.37 143.092C239.773 144.397 243.122 148.844 243.122 148.844L243.898 146.403C243.996 146.088 244.025 145.755 243.981 145.428C243.936 145.101 243.821 144.788 243.642 144.511L242.176 142.146C242.016 141.886 241.804 141.661 241.554 141.485C241.304 141.309 241.021 141.186 240.722 141.123C240.422 141.06 240.114 141.059 239.814 141.119C239.514 141.18 239.23 141.3 238.979 141.474Z" fill="#397DF6"/>
    <path d="M234.088 154.595L241.362 153.952L242.138 149.118L233.312 149.468L234.088 154.595Z" fill="#FF8B7B"/>
    <path d="M144.795 39.1078L144.312 38.2942C145.7 37.4721 147.144 36.7512 148.635 36.1373L148.995 37.0171C147.545 37.6089 146.141 38.3077 144.795 39.1078Z" fill="#397DF6"/>
    <path d="M130.983 55.8141L130.037 55.4925C132.279 49.2829 136.337 43.8907 141.682 40.0159L142.24 40.7822C137.064 44.5488 133.141 49.7868 130.983 55.8141Z" fill="#397DF6"/>
    <path d="M161.009 95.7069C177.09 95.7069 190.127 82.6704 190.127 66.5891C190.127 50.5077 177.09 37.4712 161.009 37.4712C144.928 37.4712 131.891 50.5077 131.891 66.5891C131.891 82.6704 144.928 95.7069 161.009 95.7069Z" fill="#234E99"/>
    <path opacity="0.6" d="M185.331 66.5891C185.329 72.2634 183.343 77.7584 179.717 82.123C176.091 86.4876 171.053 89.4471 165.476 90.4892C159.898 91.5312 154.131 90.5903 149.174 87.8292C144.217 85.0682 140.381 80.6608 138.331 75.37C136.28 70.0791 136.144 64.2379 137.946 58.8574C139.748 53.4769 143.375 48.8957 148.198 45.9069C153.021 42.9181 158.738 41.7099 164.358 42.4912C169.978 43.2725 175.148 45.9944 178.973 50.1855C178.981 50.1821 178.989 50.1803 178.997 50.1803C179.005 50.1803 179.013 50.1821 179.021 50.1855C183.099 54.6733 185.35 60.525 185.331 66.5891Z" fill="white"/>
    <path d="M185.331 66.5891C185.331 71.3168 183.953 75.942 181.365 79.8989C178.778 83.8558 175.094 86.9729 170.763 88.8688C166.432 90.7648 161.642 91.3574 156.98 90.5742C152.318 89.791 147.985 87.666 144.511 84.459C140.264 79.8309 137.972 73.7391 138.115 67.4592C138.259 61.1794 140.826 55.1985 145.28 50.769C149.734 46.3396 155.729 43.8051 162.009 43.6963C168.29 43.5875 174.369 45.9129 178.974 50.1854C178.981 50.182 178.989 50.1803 178.997 50.1803C179.005 50.1803 179.014 50.182 179.021 50.1854C183.099 54.6732 185.35 60.525 185.331 66.5891Z" fill="white"/>
    <path d="M161.009 68.0081C160.823 68.0085 160.638 67.9719 160.466 67.9004C160.294 67.829 160.138 67.7241 160.006 67.5919L148.144 55.729C148.004 55.5991 147.892 55.4425 147.815 55.2684C147.737 55.0943 147.695 54.9064 147.692 54.7159C147.689 54.5254 147.724 54.3361 147.795 54.1594C147.867 53.9827 147.973 53.8222 148.108 53.6875C148.242 53.5527 148.403 53.4465 148.579 53.3752C148.756 53.3038 148.945 53.2687 149.136 53.2721C149.326 53.2755 149.514 53.3172 149.688 53.3947C149.862 53.4723 150.019 53.5841 150.149 53.7235L161.009 64.5836L167.281 58.3116C167.55 58.061 167.906 57.9245 168.274 57.931C168.641 57.9375 168.992 58.0864 169.252 58.3464C169.512 58.6064 169.661 58.9571 169.667 59.3247C169.674 59.6924 169.537 60.0481 169.287 60.3171L162.012 67.5919C161.745 67.8572 161.385 68.0068 161.009 68.0081Z" fill="#263238"/>
</svg>
