<svg width="24" height="24" viewBox="0 0 24 24" fill="currentColor" xmlns="http://www.w3.org/2000/svg">
<path d="M2.5146 18L3.6946 16.818C4.0726 16.44 4.2806 15.938 4.2806 15.404V10.727C4.2806 9.36999 4.8706 8.07299 5.9006 7.17099C6.9386 6.26099 8.2606 5.86099 9.6376 6.04199C11.9646 6.35099 13.7196 8.45499 13.7196 10.937V15.404C13.7196 15.938 13.9276 16.44 14.3046 16.817L15.4856 18H2.5146ZM10.9996 20.341C10.9996 21.24 10.0836 22 8.9996 22C7.9156 22 6.9996 21.24 6.9996 20.341V20H10.9996V20.341ZM17.5206 17.208L15.7196 15.404V10.937C15.7196 7.45599 13.2176 4.49899 9.8996 4.05999C7.9776 3.80399 6.0376 4.39099 4.5826 5.66699C3.1186 6.94899 2.2806 8.79299 2.2806 10.727L2.2796 15.404L0.478603 17.208C0.00960291 17.678 -0.129397 18.377 0.124603 18.99C0.379603 19.604 0.972603 20 1.6366 20H4.9996V20.341C4.9996 22.359 6.7936 24 8.9996 24C11.2056 24 12.9996 22.359 12.9996 20.341V20H16.3626C17.0266 20 17.6186 19.604 17.8726 18.991C18.1276 18.377 17.9896 17.677 17.5206 17.208Z" fill="currentColor"/>
</svg>
