<svg width="44" height="56" viewBox="0 0 44 56" fill="none" xmlns="http://www.w3.org/2000/svg">
    <g filter="url(#filter0_i_53944_8323)">
        <path d="M33.4407 24.9068L28.3559 20.3305C27.339 21.3475 25.8136 23.3814 21.7458 23.3814C17.678 23.3814 16.1525 21.3475 14.6271 19.822L18.1864 15.7542H7V27.9576L10.0508 24.9068C11.5763 26.4322 16.0508 30.5 21.7458 30.5C27.4407 30.5 31.7458 26.6017 33.4407 24.9068Z" fill="#B5B6B5"/>
    </g>
    <g filter="url(#filter1_i_53944_8323)">
        <path d="M21.2373 12.7034L17.678 8.63559C14.1186 10.6695 13.4407 14.2288 13.6102 15.7542H7C7 14.7373 7.098 11.4414 8.01695 9.14407C9.0339 6.6017 11.2373 4.90678 12.5932 4.05932L9.54238 0.5H21.2373L21.2373 12.7034Z" fill="#4D8DF4"/>
    </g>
    <g filter="url(#filter2_i_53944_8323)">
        <path d="M25.3051 15.2456L28.8644 11.6864C26.8305 8.12712 22.9322 7.61854 21.2373 7.61857V0.5C22.7627 0.500007 26.8305 1.00847 28.8644 2.5339C30.762 3.95705 32.2543 5.58462 32.9322 6.60157L36.4915 3.55072V15.2456H25.3051Z" fill="#1B3CAC"/>
    </g>
    <path d="M25.3051 15.2456L28.8644 11.6864C26.8305 8.12712 22.9322 7.61854 21.2373 7.61857V0.5C22.7627 0.500007 26.8305 1.00847 28.8644 2.5339C30.762 3.95705 32.2543 5.58462 32.9322 6.60157L36.4915 3.55072V15.2456H25.3051Z" stroke="black" stroke-width="0.2"/>
    <path d="M1.42969 41.0781V44.5H0.488281V40.2734H1.38672L1.42969 41.0781ZM2.72266 40.2461L2.71484 41.1211C2.65755 41.1107 2.59505 41.1029 2.52734 41.0977C2.46224 41.0924 2.39714 41.0898 2.33203 41.0898C2.17057 41.0898 2.02865 41.1133 1.90625 41.1602C1.78385 41.2044 1.68099 41.2695 1.59766 41.3555C1.51693 41.4388 1.45443 41.5404 1.41016 41.6602C1.36589 41.7799 1.33984 41.9141 1.33203 42.0625L1.11719 42.0781C1.11719 41.8125 1.14323 41.5664 1.19531 41.3398C1.2474 41.1133 1.32552 40.9141 1.42969 40.7422C1.53646 40.5703 1.66927 40.4362 1.82812 40.3398C1.98958 40.2435 2.17578 40.1953 2.38672 40.1953C2.44401 40.1953 2.50521 40.2005 2.57031 40.2109C2.63802 40.2214 2.6888 40.2331 2.72266 40.2461ZM5.09766 44.5781C4.78516 44.5781 4.5026 44.5273 4.25 44.4258C4 44.3216 3.78646 44.1771 3.60938 43.9922C3.4349 43.8073 3.30078 43.5898 3.20703 43.3398C3.11328 43.0898 3.06641 42.8203 3.06641 42.5312V42.375C3.06641 42.0443 3.11458 41.7448 3.21094 41.4766C3.30729 41.2083 3.44141 40.9792 3.61328 40.7891C3.78516 40.5964 3.98828 40.4492 4.22266 40.3477C4.45703 40.2461 4.71094 40.1953 4.98438 40.1953C5.28646 40.1953 5.55078 40.2461 5.77734 40.3477C6.00391 40.4492 6.19141 40.5924 6.33984 40.7773C6.49089 40.9596 6.60286 41.1771 6.67578 41.4297C6.7513 41.6823 6.78906 41.9609 6.78906 42.2656V42.668H3.52344V41.9922H5.85938V41.918C5.85417 41.7487 5.82031 41.5898 5.75781 41.4414C5.69792 41.293 5.60547 41.1732 5.48047 41.082C5.35547 40.9909 5.1888 40.9453 4.98047 40.9453C4.82422 40.9453 4.6849 40.9792 4.5625 41.0469C4.44271 41.112 4.34245 41.207 4.26172 41.332C4.18099 41.457 4.11849 41.6081 4.07422 41.7852C4.03255 41.9596 4.01172 42.1562 4.01172 42.375V42.5312C4.01172 42.7161 4.03646 42.888 4.08594 43.0469C4.13802 43.2031 4.21354 43.3398 4.3125 43.457C4.41146 43.5742 4.53125 43.6667 4.67188 43.7344C4.8125 43.7995 4.97266 43.832 5.15234 43.832C5.37891 43.832 5.58073 43.7865 5.75781 43.6953C5.9349 43.6042 6.08854 43.4753 6.21875 43.3086L6.71484 43.7891C6.6237 43.9219 6.50521 44.0495 6.35938 44.1719C6.21354 44.2917 6.03516 44.3893 5.82422 44.4648C5.61589 44.5404 5.3737 44.5781 5.09766 44.5781ZM10.9766 42.6484H11.9531C11.9219 43.0208 11.8177 43.3529 11.6406 43.6445C11.4635 43.9336 11.2148 44.1615 10.8945 44.3281C10.5742 44.4948 10.1849 44.5781 9.72656 44.5781C9.375 44.5781 9.05859 44.5156 8.77734 44.3906C8.49609 44.263 8.25521 44.0833 8.05469 43.8516C7.85417 43.6172 7.70052 43.3346 7.59375 43.0039C7.48958 42.6732 7.4375 42.3034 7.4375 41.8945V41.4219C7.4375 41.013 7.49089 40.6432 7.59766 40.3125C7.70703 39.9818 7.86328 39.6992 8.06641 39.4648C8.26953 39.2279 8.51302 39.0469 8.79688 38.9219C9.08333 38.7969 9.40495 38.7344 9.76172 38.7344C10.2148 38.7344 10.5977 38.8177 10.9102 38.9844C11.2227 39.151 11.4648 39.3815 11.6367 39.6758C11.8112 39.9701 11.918 40.3073 11.957 40.6875H10.9805C10.9544 40.4427 10.8971 40.2331 10.8086 40.0586C10.7227 39.8841 10.5951 39.7513 10.4258 39.6602C10.2565 39.5664 10.0352 39.5195 9.76172 39.5195C9.53776 39.5195 9.34245 39.5612 9.17578 39.6445C9.00911 39.7279 8.86979 39.8503 8.75781 40.0117C8.64583 40.1732 8.5612 40.3724 8.50391 40.6094C8.44922 40.8438 8.42188 41.112 8.42188 41.4141V41.8945C8.42188 42.181 8.44661 42.4414 8.49609 42.6758C8.54818 42.9076 8.6263 43.1068 8.73047 43.2734C8.83724 43.4401 8.97266 43.569 9.13672 43.6602C9.30078 43.7513 9.4974 43.7969 9.72656 43.7969C10.0052 43.7969 10.2305 43.7526 10.4023 43.6641C10.5768 43.5755 10.7083 43.4466 10.7969 43.2773C10.888 43.1055 10.9479 42.8958 10.9766 42.6484ZM15.0586 39.5703L13.3594 44.5H12.332L14.4727 38.8125H15.1289L15.0586 39.5703ZM16.4805 44.5L14.7773 39.5703L14.7031 38.8125H15.3633L17.5117 44.5H16.4805ZM16.3984 42.3906V43.168H13.3047V42.3906H16.3984ZM20.3086 42.3789H18.8281V41.6016H20.3086C20.5664 41.6016 20.7747 41.5599 20.9336 41.4766C21.0924 41.3932 21.2083 41.2786 21.2812 41.1328C21.3568 40.9844 21.3945 40.8151 21.3945 40.625C21.3945 40.4453 21.3568 40.2773 21.2812 40.1211C21.2083 39.9622 21.0924 39.8346 20.9336 39.7383C20.7747 39.6419 20.5664 39.5938 20.3086 39.5938H19.1289V44.5H18.1484V38.8125H20.3086C20.7487 38.8125 21.1224 38.8906 21.4297 39.0469C21.7396 39.2005 21.9753 39.4141 22.1367 39.6875C22.2982 39.9583 22.3789 40.2682 22.3789 40.6172C22.3789 40.9844 22.2982 41.2995 22.1367 41.5625C21.9753 41.8255 21.7396 42.0273 21.4297 42.168C21.1224 42.3086 20.7487 42.3789 20.3086 42.3789ZM25.5977 38.8125V44.5H24.625V38.8125H25.5977ZM27.3828 38.8125V39.5938H22.8555V38.8125H27.3828ZM31.3828 42.6484H32.3594C32.3281 43.0208 32.224 43.3529 32.0469 43.6445C31.8698 43.9336 31.6211 44.1615 31.3008 44.3281C30.9805 44.4948 30.5911 44.5781 30.1328 44.5781C29.7812 44.5781 29.4648 44.5156 29.1836 44.3906C28.9023 44.263 28.6615 44.0833 28.4609 43.8516C28.2604 43.6172 28.1068 43.3346 28 43.0039C27.8958 42.6732 27.8438 42.3034 27.8438 41.8945V41.4219C27.8438 41.013 27.8971 40.6432 28.0039 40.3125C28.1133 39.9818 28.2695 39.6992 28.4727 39.4648C28.6758 39.2279 28.9193 39.0469 29.2031 38.9219C29.4896 38.7969 29.8112 38.7344 30.168 38.7344C30.6211 38.7344 31.0039 38.8177 31.3164 38.9844C31.6289 39.151 31.8711 39.3815 32.043 39.6758C32.2174 39.9701 32.3242 40.3073 32.3633 40.6875H31.3867C31.3607 40.4427 31.3034 40.2331 31.2148 40.0586C31.1289 39.8841 31.0013 39.7513 30.832 39.6602C30.6628 39.5664 30.4414 39.5195 30.168 39.5195C29.944 39.5195 29.7487 39.5612 29.582 39.6445C29.4154 39.7279 29.276 39.8503 29.1641 40.0117C29.0521 40.1732 28.9674 40.3724 28.9102 40.6094C28.8555 40.8438 28.8281 41.112 28.8281 41.4141V41.8945C28.8281 42.181 28.8529 42.4414 28.9023 42.6758C28.9544 42.9076 29.0326 43.1068 29.1367 43.2734C29.2435 43.4401 29.3789 43.569 29.543 43.6602C29.707 43.7513 29.9036 43.7969 30.1328 43.7969C30.4115 43.7969 30.6367 43.7526 30.8086 43.6641C30.9831 43.5755 31.1146 43.4466 31.2031 43.2773C31.2943 43.1055 31.3542 42.8958 31.3828 42.6484ZM37.0078 41.1875V41.9648H33.9883V41.1875H37.0078ZM34.2305 38.8125V44.5H33.25V38.8125H34.2305ZM37.7617 38.8125V44.5H36.7852V38.8125H37.7617ZM41.2148 39.5703L39.5156 44.5H38.4883L40.6289 38.8125H41.2852L41.2148 39.5703ZM42.6367 44.5L40.9336 39.5703L40.8594 38.8125H41.5195L43.668 44.5H42.6367ZM42.5547 42.3906V43.168H39.4609V42.3906H42.5547Z" fill="white"/>
    <path d="M3.05371 52.9092H1.94336V52.3262H3.05371C3.24707 52.3262 3.40332 52.2949 3.52246 52.2324C3.6416 52.1699 3.72852 52.084 3.7832 51.9746C3.83984 51.8633 3.86816 51.7363 3.86816 51.5938C3.86816 51.459 3.83984 51.333 3.7832 51.2158C3.72852 51.0967 3.6416 51.001 3.52246 50.9287C3.40332 50.8564 3.24707 50.8203 3.05371 50.8203H2.16895V54.5H1.43359V50.2344H3.05371C3.38379 50.2344 3.66406 50.293 3.89453 50.4102C4.12695 50.5254 4.30371 50.6855 4.4248 50.8906C4.5459 51.0938 4.60645 51.3262 4.60645 51.5879C4.60645 51.8633 4.5459 52.0996 4.4248 52.2969C4.30371 52.4941 4.12695 52.6455 3.89453 52.751C3.66406 52.8564 3.38379 52.9092 3.05371 52.9092ZM5.9043 51.9336V54.5H5.19824V51.3301H5.87207L5.9043 51.9336ZM6.87402 51.3096L6.86816 51.9658C6.8252 51.958 6.77832 51.9521 6.72754 51.9482C6.67871 51.9443 6.62988 51.9424 6.58105 51.9424C6.45996 51.9424 6.35352 51.96 6.26172 51.9951C6.16992 52.0283 6.09277 52.0771 6.03027 52.1416C5.96973 52.2041 5.92285 52.2803 5.88965 52.3701C5.85645 52.46 5.83691 52.5605 5.83105 52.6719L5.66992 52.6836C5.66992 52.4844 5.68945 52.2998 5.72852 52.1299C5.76758 51.96 5.82617 51.8105 5.9043 51.6816C5.98438 51.5527 6.08398 51.4521 6.20312 51.3799C6.32422 51.3076 6.46387 51.2715 6.62207 51.2715C6.66504 51.2715 6.71094 51.2754 6.75977 51.2832C6.81055 51.291 6.84863 51.2998 6.87402 51.3096ZM8.07227 51.3301V54.5H7.36328V51.3301H8.07227ZM7.31641 50.498C7.31641 50.3906 7.35156 50.3018 7.42188 50.2314C7.49414 50.1592 7.59375 50.123 7.7207 50.123C7.8457 50.123 7.94434 50.1592 8.0166 50.2314C8.08887 50.3018 8.125 50.3906 8.125 50.498C8.125 50.6035 8.08887 50.6914 8.0166 50.7617C7.94434 50.832 7.8457 50.8672 7.7207 50.8672C7.59375 50.8672 7.49414 50.832 7.42188 50.7617C7.35156 50.6914 7.31641 50.6035 7.31641 50.498ZM9.87695 53.9404L10.6533 51.3301H11.3857L10.2842 54.5H9.82715L9.87695 53.9404ZM9.28223 51.3301L10.0732 53.9521L10.1113 54.5H9.6543L8.54688 51.3301H9.28223ZM13.5625 53.8643V52.3525C13.5625 52.2393 13.542 52.1416 13.501 52.0596C13.46 51.9775 13.3975 51.9141 13.3135 51.8691C13.2314 51.8242 13.1279 51.8018 13.0029 51.8018C12.8877 51.8018 12.7881 51.8213 12.7041 51.8604C12.6201 51.8994 12.5547 51.9521 12.5078 52.0186C12.4609 52.085 12.4375 52.1602 12.4375 52.2441H11.7344C11.7344 52.1191 11.7646 51.998 11.8252 51.8809C11.8857 51.7637 11.9736 51.6592 12.0889 51.5674C12.2041 51.4756 12.3418 51.4033 12.502 51.3506C12.6621 51.2979 12.8418 51.2715 13.041 51.2715C13.2793 51.2715 13.4902 51.3115 13.6738 51.3916C13.8594 51.4717 14.0049 51.5928 14.1104 51.7549C14.2178 51.915 14.2715 52.1162 14.2715 52.3584V53.7676C14.2715 53.9121 14.2812 54.042 14.3008 54.1572C14.3223 54.2705 14.3525 54.3691 14.3916 54.4531V54.5H13.668C13.6348 54.4238 13.6084 54.3271 13.5889 54.21C13.5713 54.0908 13.5625 53.9756 13.5625 53.8643ZM13.665 52.5723L13.6709 53.0088H13.1641C13.0332 53.0088 12.918 53.0215 12.8184 53.0469C12.7188 53.0703 12.6357 53.1055 12.5693 53.1523C12.5029 53.1992 12.4531 53.2559 12.4199 53.3223C12.3867 53.3887 12.3701 53.4639 12.3701 53.5479C12.3701 53.6318 12.3896 53.709 12.4287 53.7793C12.4678 53.8477 12.5244 53.9014 12.5986 53.9404C12.6748 53.9795 12.7666 53.999 12.874 53.999C13.0186 53.999 13.1445 53.9697 13.252 53.9111C13.3613 53.8506 13.4473 53.7773 13.5098 53.6914C13.5723 53.6035 13.6055 53.5205 13.6094 53.4424L13.8379 53.7559C13.8145 53.8359 13.7744 53.9219 13.7178 54.0137C13.6611 54.1055 13.5869 54.1934 13.4951 54.2773C13.4053 54.3594 13.2969 54.4268 13.1699 54.4795C13.0449 54.5322 12.9004 54.5586 12.7363 54.5586C12.5293 54.5586 12.3447 54.5176 12.1826 54.4355C12.0205 54.3516 11.8936 54.2393 11.8018 54.0986C11.71 53.9561 11.6641 53.7949 11.6641 53.6152C11.6641 53.4473 11.6953 53.2988 11.7578 53.1699C11.8223 53.0391 11.916 52.9297 12.0391 52.8418C12.1641 52.7539 12.3164 52.6875 12.4961 52.6426C12.6758 52.5957 12.8809 52.5723 13.1113 52.5723H13.665ZM16.3047 53.9961C16.4199 53.9961 16.5234 53.9736 16.6152 53.9287C16.709 53.8818 16.7842 53.8174 16.8408 53.7354C16.8994 53.6533 16.9316 53.5586 16.9375 53.4512H17.6025C17.5986 53.6562 17.5381 53.8428 17.4209 54.0107C17.3037 54.1787 17.1484 54.3125 16.9551 54.4121C16.7617 54.5098 16.5479 54.5586 16.3135 54.5586C16.0713 54.5586 15.8604 54.5176 15.6807 54.4355C15.501 54.3516 15.3516 54.2363 15.2324 54.0898C15.1133 53.9434 15.0234 53.7744 14.9629 53.583C14.9043 53.3916 14.875 53.1865 14.875 52.9678V52.8652C14.875 52.6465 14.9043 52.4414 14.9629 52.25C15.0234 52.0566 15.1133 51.8867 15.2324 51.7402C15.3516 51.5938 15.501 51.4795 15.6807 51.3975C15.8604 51.3135 16.0703 51.2715 16.3105 51.2715C16.5645 51.2715 16.7871 51.3223 16.9785 51.4238C17.1699 51.5234 17.3203 51.6631 17.4297 51.8428C17.541 52.0205 17.5986 52.2275 17.6025 52.4639H16.9375C16.9316 52.3467 16.9023 52.2412 16.8496 52.1475C16.7988 52.0518 16.7266 51.9756 16.6328 51.9189C16.541 51.8623 16.4307 51.834 16.3018 51.834C16.1592 51.834 16.041 51.8633 15.9473 51.9219C15.8535 51.9785 15.7803 52.0566 15.7275 52.1562C15.6748 52.2539 15.6367 52.3643 15.6133 52.4873C15.5918 52.6084 15.5811 52.7344 15.5811 52.8652V52.9678C15.5811 53.0986 15.5918 53.2256 15.6133 53.3486C15.6348 53.4717 15.6719 53.582 15.7246 53.6797C15.7793 53.7754 15.8535 53.8525 15.9473 53.9111C16.041 53.9678 16.1602 53.9961 16.3047 53.9961ZM19.0645 54.1543L19.9258 51.3301H20.6816L19.4102 54.9834C19.3809 55.0615 19.3428 55.1465 19.2959 55.2383C19.249 55.3301 19.1875 55.417 19.1113 55.499C19.0371 55.583 18.9443 55.6504 18.833 55.7012C18.7217 55.7539 18.5869 55.7803 18.4287 55.7803C18.3662 55.7803 18.3057 55.7744 18.2471 55.7627C18.1904 55.7529 18.1367 55.7422 18.0859 55.7305L18.083 55.1914C18.1025 55.1934 18.126 55.1953 18.1533 55.1973C18.1826 55.1992 18.2061 55.2002 18.2236 55.2002C18.3408 55.2002 18.4385 55.1855 18.5166 55.1562C18.5947 55.1289 18.6582 55.084 18.707 55.0215C18.7578 54.959 18.8008 54.875 18.8359 54.7695L19.0645 54.1543ZM18.5781 51.3301L19.3311 53.7031L19.457 54.4473L18.9678 54.5732L17.8164 51.3301H18.5781ZM24.001 52.3965V52.959H22.4512V52.3965H24.001ZM27.7979 50.2344V54.5H27.0684V50.2344H27.7979ZM29.1367 50.2344V50.8203H25.7412V50.2344H29.1367ZM30.7451 54.5586C30.5107 54.5586 30.2988 54.5205 30.1094 54.4443C29.9219 54.3662 29.7617 54.2578 29.6289 54.1191C29.498 53.9805 29.3975 53.8174 29.3271 53.6299C29.2568 53.4424 29.2217 53.2402 29.2217 53.0234V52.9062C29.2217 52.6582 29.2578 52.4336 29.3301 52.2324C29.4023 52.0312 29.5029 51.8594 29.6318 51.7168C29.7607 51.5723 29.9131 51.4619 30.0889 51.3857C30.2646 51.3096 30.4551 51.2715 30.6602 51.2715C30.8867 51.2715 31.085 51.3096 31.2549 51.3857C31.4248 51.4619 31.5654 51.5693 31.6768 51.708C31.79 51.8447 31.874 52.0078 31.9287 52.1973C31.9854 52.3867 32.0137 52.5957 32.0137 52.8242V53.126H29.5645V52.6191H31.3164V52.5635C31.3125 52.4365 31.2871 52.3174 31.2402 52.2061C31.1953 52.0947 31.126 52.0049 31.0322 51.9365C30.9385 51.8682 30.8135 51.834 30.6572 51.834C30.54 51.834 30.4355 51.8594 30.3438 51.9102C30.2539 51.959 30.1787 52.0303 30.1182 52.124C30.0576 52.2178 30.0107 52.3311 29.9775 52.4639C29.9463 52.5947 29.9307 52.7422 29.9307 52.9062V53.0234C29.9307 53.1621 29.9492 53.291 29.9863 53.4102C30.0254 53.5273 30.082 53.6299 30.1562 53.7178C30.2305 53.8057 30.3203 53.875 30.4258 53.9258C30.5312 53.9746 30.6514 53.999 30.7861 53.999C30.9561 53.999 31.1074 53.9648 31.2402 53.8965C31.373 53.8281 31.4883 53.7314 31.5859 53.6064L31.958 53.9668C31.8896 54.0664 31.8008 54.1621 31.6914 54.2539C31.582 54.3438 31.4482 54.417 31.29 54.4736C31.1338 54.5303 30.9521 54.5586 30.7451 54.5586ZM33.2734 51.9336V54.5H32.5674V51.3301H33.2412L33.2734 51.9336ZM34.2432 51.3096L34.2373 51.9658C34.1943 51.958 34.1475 51.9521 34.0967 51.9482C34.0479 51.9443 33.999 51.9424 33.9502 51.9424C33.8291 51.9424 33.7227 51.96 33.6309 51.9951C33.5391 52.0283 33.4619 52.0771 33.3994 52.1416C33.3389 52.2041 33.292 52.2803 33.2588 52.3701C33.2256 52.46 33.2061 52.5605 33.2002 52.6719L33.0391 52.6836C33.0391 52.4844 33.0586 52.2998 33.0977 52.1299C33.1367 51.96 33.1953 51.8105 33.2734 51.6816C33.3535 51.5527 33.4531 51.4521 33.5723 51.3799C33.6934 51.3076 33.833 51.2715 33.9912 51.2715C34.0342 51.2715 34.0801 51.2754 34.1289 51.2832C34.1797 51.291 34.2178 51.2998 34.2432 51.3096ZM35.3916 51.9746V54.5H34.6855V51.3301H35.3506L35.3916 51.9746ZM35.2773 52.7979L35.0371 52.7949C35.0371 52.5762 35.0645 52.374 35.1191 52.1885C35.1738 52.0029 35.2539 51.8418 35.3594 51.7051C35.4648 51.5664 35.5957 51.46 35.752 51.3857C35.9102 51.3096 36.0928 51.2715 36.2998 51.2715C36.4443 51.2715 36.5762 51.293 36.6953 51.3359C36.8164 51.377 36.9209 51.4424 37.0088 51.5322C37.0986 51.6221 37.167 51.7373 37.2139 51.8779C37.2627 52.0186 37.2871 52.1885 37.2871 52.3877V54.5H36.5811V52.4492C36.5811 52.2949 36.5576 52.1738 36.5107 52.0859C36.4658 51.998 36.4004 51.9355 36.3145 51.8984C36.2305 51.8594 36.1299 51.8398 36.0127 51.8398C35.8799 51.8398 35.7666 51.8652 35.6729 51.916C35.5811 51.9668 35.5059 52.0361 35.4473 52.124C35.3887 52.2119 35.3457 52.3135 35.3184 52.4287C35.291 52.5439 35.2773 52.667 35.2773 52.7979ZM37.2432 52.6104L36.9121 52.6836C36.9121 52.4922 36.9385 52.3115 36.9912 52.1416C37.0459 51.9697 37.125 51.8193 37.2285 51.6904C37.334 51.5596 37.4639 51.457 37.6182 51.3828C37.7725 51.3086 37.9492 51.2715 38.1484 51.2715C38.3105 51.2715 38.4551 51.2939 38.582 51.3389C38.7109 51.3818 38.8203 51.4502 38.9102 51.5439C39 51.6377 39.0684 51.7598 39.1152 51.9102C39.1621 52.0586 39.1855 52.2383 39.1855 52.4492V54.5H38.4766V52.4463C38.4766 52.2861 38.4531 52.1621 38.4062 52.0742C38.3613 51.9863 38.2969 51.9258 38.2129 51.8926C38.1289 51.8574 38.0283 51.8398 37.9111 51.8398C37.8018 51.8398 37.7051 51.8604 37.6211 51.9014C37.5391 51.9404 37.4697 51.9961 37.4131 52.0684C37.3564 52.1387 37.3135 52.2197 37.2842 52.3115C37.2568 52.4033 37.2432 52.5029 37.2432 52.6104ZM41.6904 53.6416C41.6904 53.5713 41.6729 53.5078 41.6377 53.4512C41.6025 53.3926 41.5352 53.3398 41.4355 53.293C41.3379 53.2461 41.1934 53.2031 41.002 53.1641C40.834 53.127 40.6797 53.083 40.5391 53.0322C40.4004 52.9795 40.2812 52.916 40.1816 52.8418C40.082 52.7676 40.0049 52.6797 39.9502 52.5781C39.8955 52.4766 39.8682 52.3594 39.8682 52.2266C39.8682 52.0977 39.8965 51.9756 39.9531 51.8604C40.0098 51.7451 40.0908 51.6436 40.1963 51.5557C40.3018 51.4678 40.4297 51.3984 40.5801 51.3477C40.7324 51.2969 40.9023 51.2715 41.0898 51.2715C41.3555 51.2715 41.583 51.3164 41.7725 51.4062C41.9639 51.4941 42.1104 51.6143 42.2119 51.7666C42.3135 51.917 42.3643 52.0869 42.3643 52.2764H41.6582C41.6582 52.1924 41.6367 52.1143 41.5938 52.042C41.5527 51.9678 41.4902 51.9082 41.4062 51.8633C41.3223 51.8164 41.2168 51.793 41.0898 51.793C40.9688 51.793 40.8682 51.8125 40.7881 51.8516C40.71 51.8887 40.6514 51.9375 40.6123 51.998C40.5752 52.0586 40.5566 52.125 40.5566 52.1973C40.5566 52.25 40.5664 52.2979 40.5859 52.3408C40.6074 52.3818 40.6426 52.4199 40.6914 52.4551C40.7402 52.4883 40.8066 52.5195 40.8906 52.5488C40.9766 52.5781 41.084 52.6064 41.2129 52.6338C41.4551 52.6846 41.6631 52.75 41.8369 52.8301C42.0127 52.9082 42.1475 53.0098 42.2412 53.1348C42.335 53.2578 42.3818 53.4141 42.3818 53.6035C42.3818 53.7441 42.3516 53.873 42.291 53.9902C42.2324 54.1055 42.1465 54.2061 42.0332 54.292C41.9199 54.376 41.7842 54.4414 41.626 54.4883C41.4697 54.5352 41.2939 54.5586 41.0986 54.5586C40.8115 54.5586 40.5684 54.5078 40.3691 54.4062C40.1699 54.3027 40.0186 54.1709 39.915 54.0107C39.8135 53.8486 39.7627 53.6807 39.7627 53.5068H40.4453C40.4531 53.6377 40.4893 53.7422 40.5537 53.8203C40.6201 53.8965 40.7021 53.9521 40.7998 53.9873C40.8994 54.0205 41.002 54.0371 41.1074 54.0371C41.2344 54.0371 41.3408 54.0205 41.4268 53.9873C41.5127 53.9521 41.5781 53.9053 41.623 53.8467C41.668 53.7861 41.6904 53.7178 41.6904 53.6416Z" fill="white"/>
    <defs>
        <filter id="filter0_i_53944_8323" x="7" y="14.7542" width="27.4409" height="15.7458" filterUnits="userSpaceOnUse" color-interpolation-filters="sRGB">
            <feFlood flood-opacity="0" result="BackgroundImageFix"/>
            <feBlend mode="normal" in="SourceGraphic" in2="BackgroundImageFix" result="shape"/>
            <feColorMatrix in="SourceAlpha" type="matrix" values="0 0 0 0 0 0 0 0 0 0 0 0 0 0 0 0 0 0 127 0" result="hardAlpha"/>
            <feOffset dx="1" dy="-1"/>
            <feGaussianBlur stdDeviation="0.5"/>
            <feComposite in2="hardAlpha" operator="arithmetic" k2="-1" k3="1"/>
            <feColorMatrix type="matrix" values="0 0 0 0 1 0 0 0 0 1 0 0 0 0 1 0 0 0 0.2 0"/>
            <feBlend mode="normal" in2="shape" result="effect1_innerShadow_53944_8323"/>
        </filter>
        <filter id="filter1_i_53944_8323" x="7" y="-0.5" width="15.2373" height="16.2542" filterUnits="userSpaceOnUse" color-interpolation-filters="sRGB">
            <feFlood flood-opacity="0" result="BackgroundImageFix"/>
            <feBlend mode="normal" in="SourceGraphic" in2="BackgroundImageFix" result="shape"/>
            <feColorMatrix in="SourceAlpha" type="matrix" values="0 0 0 0 0 0 0 0 0 0 0 0 0 0 0 0 0 0 127 0" result="hardAlpha"/>
            <feOffset dx="1" dy="-1"/>
            <feGaussianBlur stdDeviation="0.5"/>
            <feComposite in2="hardAlpha" operator="arithmetic" k2="-1" k3="1"/>
            <feColorMatrix type="matrix" values="0 0 0 0 0 0 0 0 0 0 0 0 0 0 0 0 0 0 0.1 0"/>
            <feBlend mode="normal" in2="shape" result="effect1_innerShadow_53944_8323"/>
        </filter>
        <filter id="filter2_i_53944_8323" x="21.1372" y="-0.600006" width="16.4541" height="15.9456" filterUnits="userSpaceOnUse" color-interpolation-filters="sRGB">
            <feFlood flood-opacity="0" result="BackgroundImageFix"/>
            <feBlend mode="normal" in="SourceGraphic" in2="BackgroundImageFix" result="shape"/>
            <feColorMatrix in="SourceAlpha" type="matrix" values="0 0 0 0 0 0 0 0 0 0 0 0 0 0 0 0 0 0 127 0" result="hardAlpha"/>
            <feOffset dx="1" dy="-1"/>
            <feGaussianBlur stdDeviation="0.5"/>
            <feComposite in2="hardAlpha" operator="arithmetic" k2="-1" k3="1"/>
            <feColorMatrix type="matrix" values="0 0 0 0 0 0 0 0 0 0 0 0 0 0 0 0 0 0 0.1 0"/>
            <feBlend mode="normal" in2="shape" result="effect1_innerShadow_53944_8323"/>
        </filter>
    </defs>
</svg>
